<?xml version="1.0" encoding="UTF-8" standalone="no"?>
<!-- Generator: Adobe Illustrator 25.2.0, SVG Export Plug-In . SVG Version: 6.00 Build 0)  -->

<svg
   version="1.1"
   x="0px"
   y="0px"
   viewBox="0 0 840 249"
   xml:space="preserve"
   id="svg42"
   sodipodi:docname="MUC_DAI_Logo_RGB_Weiss.svg"
   inkscape:export-filename="../MUC.DAI_Logo_RGB_Weiss.pdf"
   inkscape:export-xdpi="317.8808"
   inkscape:export-ydpi="317.8808"
   inkscape:version="1.3.2 (091e20e, 2023-11-25)"
   width="840"
   height="249"
   xmlns:inkscape="http://www.inkscape.org/namespaces/inkscape"
   xmlns:sodipodi="http://sodipodi.sourceforge.net/DTD/sodipodi-0.dtd"
   xmlns="http://www.w3.org/2000/svg"
   xmlns:svg="http://www.w3.org/2000/svg"><defs
   id="defs42" /><sodipodi:namedview
   id="namedview42"
   pagecolor="#000000"
   bordercolor="#000000"
   borderopacity="0"
   inkscape:showpageshadow="2"
   inkscape:pageopacity="0.0"
   inkscape:pagecheckerboard="0"
   inkscape:deskcolor="#d1d1d1"
   inkscape:export-bgcolor="#000000ff"
   inkscape:zoom="3.0649351"
   inkscape:cx="713.22881"
   inkscape:cy="82.220339"
   inkscape:window-width="1920"
   inkscape:window-height="1147"
   inkscape:window-x="0"
   inkscape:window-y="25"
   inkscape:window-maximized="0"
   inkscape:current-layer="svg42"
   inkscape:document-units="px" />
<style
   type="text/css"
   id="style1">
	.st0{display:none;}
	.st1{fill:#FFFFFF;}
</style>


<style
   type="text/css"
   id="style1-8">
	.st0{display:none;}
	.st1{fill:#FFFFFF;}
</style><style
   type="text/css"
   id="style1-0">
	.st0{display:none;}
</style><style
   type="text/css"
   id="style1-4">
	.st0{display:none;}
	.st1{fill:#FFFFFF;}
</style><rect
   style="display:inline;fill:#000000;fill-opacity:1;stroke-width:0.962242"
   id="rect44"
   width="918.45355"
   height="283.20334"
   x="-35.237282"
   y="-11.745763"
   ry="0" /><g
   id="g43"
   transform="translate(-25.550336,-32.985824)"><g
     id="Layer_2">
	<g
   id="g42">
		<path
   class="st1"
   d="M 51.16,90.87 32.37,40.17 h -0.16 v 50.7 H 25.57 V 33.04 H 36.34 L 54.15,81.8 h 0.16 L 72.13,33.04 H 82.5 v 57.83 h -6.72 v -50.7 h -0.16 l -18.79,50.7 z"
   id="path1" />
		<path
   class="st1"
   d="m 120.09,91.84 c -14.74,0 -23.41,-8.75 -23.41,-24.7 v -34.1 h 6.97 V 67.7 c 0,12.31 6.32,18.22 16.44,18.22 10.21,0 16.44,-5.91 16.44,-18.22 V 33.04 h 6.97 V 67.3 c 0,15.79 -8.51,24.54 -23.41,24.54 z"
   id="path2" />
		<path
   class="st1"
   d="m 180.19,85.93 c 9.72,0 13.93,-5.43 15.23,-11.91 h 6.8 c -1.86,10.53 -9.4,17.82 -22.03,17.82 -14.9,0 -25.92,-11.74 -25.92,-29.97 0,-18.14 11.02,-29.81 25.92,-29.81 12.63,0 20.17,7.29 22.03,17.82 h -6.8 c -1.3,-6.48 -5.51,-11.91 -15.23,-11.91 -11.91,0 -18.79,9.48 -18.79,23.89 0,14.43 6.88,24.07 18.79,24.07 z"
   id="path3" />
		<path
   class="st1"
   d="m 213.81,82.04 h 8.83 v 8.83 h -8.83 z"
   id="path4" />
		<path
   class="st1"
   d="m 286.86,61.95 c 0,17.41 -11.42,28.91 -28.19,28.91 H 238.18 V 33.04 h 20.49 c 16.77,0 28.19,11.58 28.19,28.91 z M 245.07,38.87 v 46.17 h 13.61 c 13.44,0 20.98,-9.07 20.98,-23.08 0,-13.93 -7.53,-23.08 -20.98,-23.08 h -13.61 z"
   id="path5" />
		<path
   class="st1"
   d="m 331.58,74.75 h -27.7 l -6.4,16.12 h -6.97 l 23.41,-57.83 h 7.86 l 23.49,57.83 h -7.29 z M 306.14,69 H 329.3 L 317.88,40 h -0.24 z"
   id="path6" />
		<path
   class="st1"
   d="m 351.18,33.04 h 6.97 v 57.83 h -6.97 z"
   id="path7" />
		<path
   class="st1"
   d="m 51.16,178.87 -18.79,-50.7 h -0.16 v 50.7 h -6.64 v -57.83 h 10.77 l 17.82,48.76 h 0.16 L 72.14,121.04 H 82.5 v 57.83 h -6.72 v -50.7 h -0.16 l -18.79,50.7 z"
   id="path8" />
		<path
   class="st1"
   d="m 124.22,178.87 v -7.37 c -1.94,5.1 -6.8,8.34 -12.96,8.34 -9.23,0 -14.42,-5.59 -14.42,-15.47 v -26.24 h 6.8 v 24.95 c 0,7.53 3.16,11.5 9.56,11.5 6.16,0 10.77,-4.21 10.77,-14.01 v -22.44 h 6.8 v 40.74 z"
   id="path9" />
		<path
   class="st1"
   d="m 151.68,145.58 c 1.94,-5.02 7.05,-8.42 13.28,-8.42 9.15,0 14.58,5.75 14.58,15.47 v 26.24 h -6.72 v -24.78 c 0,-7.53 -3.32,-11.42 -9.72,-11.42 -6.24,0 -11.18,3.97 -11.18,13.77 v 22.44 h -6.72 v -40.74 h 6.48 z"
   id="path10" />
		<path
   class="st1"
   d="m 193.07,121.44 h 7.61 v 8.18 h -7.61 z m 0.49,16.69 h 6.72 v 40.74 h -6.72 z"
   id="path11" />
		<path
   class="st1"
   d="m 230.9,137.16 c 9.07,0 15.06,5.18 16.36,13.85 h -6.4 c -1.13,-5.43 -4.45,-8.42 -9.96,-8.42 -8.02,0 -12.55,6.4 -12.55,15.96 0,9.56 4.54,15.88 12.55,15.88 5.51,0 8.83,-3 9.96,-8.42 h 6.4 c -1.3,8.75 -7.29,13.85 -16.36,13.85 -11.34,0 -19.2,-8.26 -19.2,-21.3 0,-13.06 7.86,-21.4 19.2,-21.4 z"
   id="path12" />
		<path
   class="st1"
   d="m 278.12,137.16 c 9.15,0 14.58,5.75 14.58,15.47 v 26.24 h -6.72 v -24.78 c 0,-7.53 -3.32,-11.42 -9.72,-11.42 -6.24,0 -11.18,3.97 -11.18,13.77 v 22.44 h -6.72 v -59.61 h 6.72 v 26.32 c 1.94,-5.19 6.8,-8.43 13.04,-8.43 z"
   id="path13" />
		<path
   class="st1"
   d="m 347.05,173.93 c 9.72,0 13.93,-5.43 15.23,-11.91 h 6.8 c -1.86,10.53 -9.4,17.82 -22.03,17.82 -14.9,0 -25.92,-11.74 -25.92,-29.97 0,-18.14 11.02,-29.81 25.92,-29.81 12.63,0 20.17,7.29 22.03,17.82 h -6.8 c -1.3,-6.48 -5.51,-11.91 -15.23,-11.91 -11.91,0 -18.79,9.48 -18.79,23.89 0,14.43 6.88,24.07 18.79,24.07 z"
   id="path14" />
		<path
   class="st1"
   d="m 394.67,179.84 c -11.5,0 -19.6,-8.02 -19.6,-21.14 0,-13.28 8.34,-21.54 19.2,-21.54 12.07,0 17.49,9.64 17.49,20.09 v 2.67 h -30.13 c 0.32,9.4 5.26,14.58 13.04,14.58 5.51,0 8.83,-2.67 10.53,-7.61 h 6.32 c -1.86,8.66 -8.91,12.95 -16.85,12.95 z m -12.79,-24.78 h 23.33 c -0.16,-7.05 -3.64,-12.47 -10.93,-12.47 -6.41,-0.01 -11.27,4.12 -12.4,12.47 z"
   id="path15" />
		<path
   class="st1"
   d="m 427.88,145.58 c 1.94,-5.02 7.05,-8.42 13.28,-8.42 9.15,0 14.58,5.75 14.58,15.47 v 26.24 h -6.72 v -24.78 c 0,-7.53 -3.32,-11.42 -9.72,-11.42 -6.24,0 -11.18,3.97 -11.18,13.77 v 22.44 h -6.72 v -40.74 h 6.48 z"
   id="path16" />
		<path
   class="st1"
   d="m 486.93,178.38 c -3,0.89 -5.35,1.13 -7.13,1.13 -7.45,0 -11.26,-3.56 -11.26,-11.1 v -25.19 h -5.99 v -5.1 h 5.99 v -10.37 h 6.64 v 10.37 h 10.69 v 5.1 H 475.1 v 24.87 c 0,4.29 2.19,5.75 5.91,5.75 1.54,0 3.32,-0.16 5.91,-0.97 v 5.51 z"
   id="path17" />
		<path
   class="st1"
   d="m 512.93,179.84 c -11.5,0 -19.6,-8.02 -19.6,-21.14 0,-13.28 8.34,-21.54 19.2,-21.54 12.07,0 17.49,9.64 17.49,20.09 v 2.67 h -30.13 c 0.32,9.4 5.26,14.58 13.04,14.58 5.51,0 8.83,-2.67 10.53,-7.61 h 6.32 c -1.87,8.66 -8.91,12.95 -16.85,12.95 z m -12.8,-24.78 h 23.33 c -0.16,-7.05 -3.64,-12.47 -10.93,-12.47 -6.4,-0.01 -11.26,4.12 -12.4,12.47 z"
   id="path18" />
		<path
   class="st1"
   d="m 562.99,143.72 c -0.97,-0.24 -2.43,-0.32 -3.48,-0.32 -6.48,0 -12.39,5.1 -12.39,15.39 v 20.09 h -6.72 v -40.74 h 6.48 v 9.64 c 1.78,-6.72 6.96,-10.53 12.96,-10.53 1.05,0 2.19,0.08 3.16,0.32 v 6.15 z"
   id="path19" />
		<path
   class="st1"
   d="m 582.19,143.23 v -5.1 h 5.91 v -7.61 c 0,-7.61 4.86,-11.5 11.82,-11.5 1.46,0 3.32,0.16 4.54,0.41 v 5.35 c -1.05,-0.16 -2.67,-0.24 -4.13,-0.24 -2.92,0 -5.59,1.46 -5.59,6.07 v 7.53 h 8.75 v 5.1 h -8.75 v 35.64 h -6.64 v -35.64 h -5.91 z"
   id="path20" />
		<path
   class="st1"
   d="m 627.54,179.84 c -11.26,0 -19.36,-8.18 -19.36,-21.3 0,-13.12 8.1,-21.38 19.36,-21.38 11.26,0 19.36,8.26 19.36,21.38 0,13.12 -8.1,21.3 -19.36,21.3 z m 0,-5.43 c 7.94,0 12.71,-6.07 12.71,-15.88 0,-9.8 -4.78,-15.96 -12.71,-15.96 -7.93,0 -12.72,6.16 -12.72,15.96 0.01,9.81 4.79,15.88 12.72,15.88 z"
   id="path21" />
		<path
   class="st1"
   d="m 679.87,143.72 c -0.97,-0.24 -2.43,-0.32 -3.48,-0.32 -6.48,0 -12.39,5.1 -12.39,15.39 v 20.09 h -6.72 v -40.74 h 6.48 v 9.64 c 1.78,-6.72 6.97,-10.53 12.96,-10.53 1.05,0 2.19,0.08 3.16,0.32 v 6.15 z"
   id="path22" />
		<path
   class="st1"
   d="m 74.24,237.95 c 0,17.41 -11.42,28.92 -28.19,28.92 H 25.56 v -57.83 h 20.49 c 16.77,0 28.19,11.58 28.19,28.91 z M 32.45,214.87 v 46.17 h 13.61 c 13.44,0 20.98,-9.07 20.98,-23.08 0,-13.93 -7.53,-23.08 -20.98,-23.08 H 32.45 Z"
   id="path23" />
		<path
   class="st1"
   d="m 85.02,209.44 h 7.61 v 8.18 h -7.61 z m 0.48,16.69 h 6.72 v 40.74 H 85.5 Z"
   id="path24" />
		<path
   class="st1"
   d="m 135.15,258.28 c -1.86,3.97 -6.4,7.86 -13.53,7.86 -10.45,0 -18.06,-7.86 -18.06,-20.57 0,-12.23 7.61,-20.41 18.06,-20.41 7.13,0 11.83,4.21 13.77,8.1 v -7.13 h 6.56 v 37.66 c 0,12.96 -8.42,18.47 -19.28,18.47 -9.8,0 -16.44,-3.97 -18.06,-11.91 h 6.8 c 1.38,5.1 5.67,6.72 11.18,6.72 8.02,0 12.55,-4.29 12.55,-12.8 v -5.99 z m 0.49,-13.69 c 0,-8.42 -5.26,-14.17 -12.8,-14.17 -7.94,0 -12.64,6.07 -12.64,15.15 0,8.99 4.7,15.23 12.64,15.23 7.53,0 12.8,-5.83 12.8,-14.25 z"
   id="path25" />
		<path
   class="st1"
   d="m 155.89,209.44 h 7.61 v 8.18 h -7.61 z m 0.49,16.69 h 6.72 v 40.74 h -6.72 z"
   id="path26" />
		<path
   class="st1"
   d="m 196.47,266.38 c -3,0.89 -5.35,1.13 -7.13,1.13 -7.45,0 -11.26,-3.56 -11.26,-11.1 v -25.19 h -5.99 v -5.1 h 5.99 v -10.37 h 6.64 v 10.37 h 10.69 v 5.1 h -10.77 v 24.86 c 0,4.29 2.19,5.75 5.91,5.75 1.54,0 3.32,-0.16 5.91,-0.97 v 5.52 z"
   id="path27" />
		<path
   class="st1"
   d="m 231.62,259.98 c -1.78,4.78 -7.37,7.78 -14.17,7.78 -7.13,0 -13.2,-4.13 -13.2,-11.66 0,-7.86 5.83,-11.26 14.09,-12.23 l 13.12,-1.7 v -2.35 c 0,-6.48 -3.97,-9.23 -9.56,-9.23 -5.43,0 -8.83,2.83 -9.31,7.53 h -6.48 c 0.81,-8.26 7.29,-12.96 15.96,-12.96 9.88,0 16.04,4.7 16.04,14.5 v 18.71 c 0,3 0.16,5.83 0.97,8.5 h -6.72 c -0.49,-2.27 -0.74,-4.94 -0.74,-6.89 z m -0.16,-9.15 v -3.64 l -11.1,1.21 c -5.1,0.73 -9.31,2.03 -9.31,7.53 0,3.81 2.67,6.72 7.78,6.72 6.31,0.01 12.63,-3.96 12.63,-11.82 z"
   id="path28" />
		<path
   class="st1"
   d="m 252.12,266.87 v -59.61 h 6.72 v 59.61 z"
   id="path29" />
		<path
   class="st1"
   d="m 294.15,249.78 c 0.89,9.31 8.5,12.47 17.09,12.47 8.26,0 14.34,-3.97 14.34,-10.93 0,-4.86 -2.67,-8.02 -10.53,-9.48 l -11.01,-2.19 c -7.78,-1.46 -14.74,-5.02 -14.74,-14.98 0,-9.48 8.18,-16.6 20.17,-16.6 12.39,0 20.57,5.35 21.71,15.79 h -6.72 c -0.97,-6.48 -6.64,-10.21 -14.9,-10.21 -8.42,0 -13.44,4.7 -13.44,10.77 0,5.75 3.24,7.78 10.29,9.15 l 11.34,2.35 c 8.91,1.78 14.58,5.91 14.58,15.06 0,9.88 -8.75,16.85 -20.98,16.85 -12.55,0 -23.08,-5.43 -23.89,-18.06 h 6.69 z"
   id="path30" />
		<path
   class="st1"
   d="m 359.03,225.16 c 9.07,0 15.06,5.18 16.36,13.85 H 369 c -1.13,-5.43 -4.45,-8.42 -9.96,-8.42 -8.02,0 -12.55,6.4 -12.55,15.96 0,9.56 4.54,15.87 12.55,15.87 5.51,0 8.83,-3 9.96,-8.42 h 6.4 c -1.3,8.75 -7.29,13.85 -16.36,13.85 -11.34,0 -19.2,-8.26 -19.2,-21.3 0,-13.04 7.85,-21.39 19.19,-21.39 z"
   id="path31" />
		<path
   class="st1"
   d="m 384.71,209.44 h 7.61 v 8.18 h -7.61 z m 0.49,16.69 h 6.72 v 40.74 h -6.72 z"
   id="path32" />
		<path
   class="st1"
   d="m 421.64,267.84 c -11.5,0 -19.6,-8.02 -19.6,-21.14 0,-13.28 8.34,-21.54 19.2,-21.54 12.07,0 17.49,9.64 17.49,20.09 v 2.67 H 408.6 c 0.32,9.39 5.26,14.58 13.04,14.58 5.51,0 8.83,-2.67 10.53,-7.61 h 6.32 c -1.86,8.66 -8.91,12.95 -16.85,12.95 z m -12.79,-24.78 h 23.33 c -0.16,-7.05 -3.64,-12.47 -10.93,-12.47 -6.41,-0.01 -11.27,4.12 -12.4,12.47 z"
   id="path33" />
		<path
   class="st1"
   d="m 455.34,233.58 c 1.94,-5.02 7.05,-8.42 13.28,-8.42 9.15,0 14.58,5.75 14.58,15.47 v 26.24 h -6.72 v -24.78 c 0,-7.53 -3.32,-11.42 -9.72,-11.42 -6.24,0 -11.18,3.97 -11.18,13.77 v 22.44 h -6.72 v -40.74 h 6.48 z"
   id="path34" />
		<path
   class="st1"
   d="m 512.12,225.16 c 9.07,0 15.06,5.18 16.36,13.85 h -6.4 c -1.13,-5.43 -4.45,-8.42 -9.96,-8.42 -8.02,0 -12.55,6.4 -12.55,15.96 0,9.56 4.54,15.87 12.55,15.87 5.51,0 8.83,-3 9.96,-8.42 h 6.4 c -1.29,8.75 -7.29,13.85 -16.36,13.85 -11.34,0 -19.2,-8.26 -19.2,-21.3 0,-13.04 7.86,-21.39 19.2,-21.39 z"
   id="path35" />
		<path
   class="st1"
   d="m 554.89,267.84 c -11.5,0 -19.6,-8.02 -19.6,-21.14 0,-13.28 8.34,-21.54 19.2,-21.54 12.07,0 17.49,9.64 17.49,20.09 v 2.67 h -30.13 c 0.32,9.39 5.27,14.58 13.04,14.58 5.51,0 8.83,-2.67 10.53,-7.61 h 6.32 c -1.87,8.66 -8.92,12.95 -16.85,12.95 z m -12.8,-24.78 h 23.33 c -0.16,-7.05 -3.64,-12.47 -10.93,-12.47 -6.41,-0.01 -11.27,4.12 -12.4,12.47 z"
   id="path36" />
		<path
   class="st1"
   d="m 585.5,254.8 c 0.49,5.59 5.67,7.94 11.18,7.94 5.59,0 9.64,-2.59 9.64,-6.96 0,-3 -1.94,-4.94 -7.13,-5.91 l -7.21,-1.46 c -6.56,-1.21 -11.34,-3.89 -11.34,-11.01 0,-6.88 6.15,-12.23 15.14,-12.23 9.4,0 15.15,4.05 15.96,11.74 h -6.24 c -0.49,-4.13 -4.13,-6.56 -9.72,-6.56 -5.43,0 -8.91,2.67 -8.91,6.64 0,3.48 2.43,4.94 7.13,5.83 l 8.1,1.54 c 6.64,1.3 10.53,4.54 10.53,11.1 0,7.13 -6.72,12.39 -15.88,12.39 -9.72,0 -17.01,-4.29 -17.74,-13.04 h 6.49 z"
   id="path37" />
		<path
   class="st1"
   d="m 663.5,259.98 c -1.78,4.78 -7.37,7.78 -14.17,7.78 -7.13,0 -13.2,-4.13 -13.2,-11.66 0,-7.86 5.83,-11.26 14.09,-12.23 l 13.12,-1.7 v -2.35 c 0,-6.48 -3.97,-9.23 -9.56,-9.23 -5.43,0 -8.83,2.83 -9.31,7.53 h -6.48 c 0.81,-8.26 7.29,-12.96 15.96,-12.96 9.88,0 16.04,4.7 16.04,14.5 v 18.71 c 0,3 0.16,5.83 0.97,8.5 h -6.72 c -0.49,-2.27 -0.74,-4.94 -0.74,-6.89 z m -0.16,-9.15 v -3.64 l -11.1,1.21 c -5.1,0.73 -9.31,2.03 -9.31,7.53 0,3.81 2.67,6.72 7.78,6.72 6.31,0.01 12.63,-3.96 12.63,-11.82 z"
   id="path38" />
		<path
   class="st1"
   d="m 690.8,233.58 c 1.94,-5.02 7.05,-8.42 13.28,-8.42 9.15,0 14.58,5.75 14.58,15.47 v 26.24 h -6.72 v -24.78 c 0,-7.53 -3.32,-11.42 -9.72,-11.42 -6.24,0 -11.18,3.97 -11.18,13.77 v 22.44 h -6.72 v -40.74 h 6.48 z"
   id="path39" />
		<path
   class="st1"
   d="m 761.92,259.74 c -2.03,4.13 -7.05,8.1 -13.77,8.1 -10.37,0 -18.14,-8.42 -18.14,-21.3 0,-12.96 7.78,-21.38 18.14,-21.38 7.05,0 11.66,4.05 13.53,8.18 v -26.08 h 6.72 v 59.61 h -6.48 z M 762,245.89 c 0,-9.23 -4.54,-15.47 -12.47,-15.47 -8.02,0 -12.72,6.56 -12.72,16.12 0,9.48 4.7,16.04 12.72,16.04 7.94,0 12.47,-6.32 12.47,-15.55 z"
   id="path40" />
		<path
   class="st1"
   d="m 836.27,250.75 h -27.7 l -6.4,16.12 h -6.97 l 23.41,-57.83 h 7.86 l 23.49,57.83 h -7.29 z M 810.84,245 H 834 l -11.42,-29 h -0.24 z"
   id="path41" />
		<path
   class="st1"
   d="m 859.2,209.04 h 6.96 v 57.83 h -6.96 z"
   id="path42" />
	</g>
</g></g></svg>
